<?xml version="1.0" encoding="UTF-8"?>
<svg id="Layer_1" xmlns="http://www.w3.org/2000/svg" version="1.1" viewBox="0 0 848 543.3">
  <!-- Generator: Adobe Illustrator 29.5.1, SVG Export Plug-In . SVG Version: 2.1.0 Build 141)  -->
  <defs>
    <style>
      .st0 {
        fill: #99a98c;
      }
    </style>
  </defs>
  <g id="Graphic_Elements">
    <path class="st0" d="M823.1,416.6c-44.4-44-100.5-72-162.2-81-7.9-1.2-15.2,4.3-16.3,12.2-1.2,7.9,4.3,15.2,12.2,16.4,50.5,7.4,97,29,135.1,62.7-46.9,41.4-107.1,64.7-170.3,65.8-60.1,1.1-118.2-17.9-165.3-53.8,143.5-18.5,255.6-141.2,256.4-288.9,0-3.8-1.5-7.6-4.2-10.3-2.9-2.9-6.8-4.5-10.5-4.2-61.1.4-119.5,19.5-168.8,55.3-6.4,4.7-7.9,13.7-3.2,20.1,2.3,3.1,5.6,5.2,9.4,5.8,3.8.6,7.6-.3,10.7-2.6,40.3-29.3,87.6-46.2,137.3-49.3-4.1,65.3-32.3,126.4-80,172.6-41.3,40-93.4,65.1-149.2,72.6,88.5-114.4,81.5-279.9-21.8-384.3-2.6-2.7-6.4-4.2-10.3-4.2s-7.6,1.5-10.2,4.2c-44,44.4-72,100.5-81,162.2-1.1,7.9,4.3,15.2,12.2,16.4,7.9,1.1,15.2-4.4,16.3-12.2,7.4-50.5,29-97,62.7-135.1,43,48.8,65.9,111.6,64.7,177.7-1.1,57.2-20.2,111.6-54.4,156.3-18.3-142.3-139.6-254-285.4-255.5-3.9,0-7.6,1.4-10.4,4.2-2.7,2.7-4.3,6.4-4.3,10.2v26.8c0,.5,0,1,0,1.5,5,49,22.6,96.3,50.9,136.8,4.5,6.5,13.5,8.1,20.1,3.5,3.2-2.2,5.3-5.5,5.9-9.3.7-3.8-.2-7.6-2.4-10.8-25.3-36.2-41.2-78.5-45.8-122.4v-11c64.6,4.3,124.9,32.6,170.6,80.1,39.5,41.1,64.3,92.7,71.7,148.1-113.6-87.5-278.1-78.8-381.5,22.4-2.8,2.7-4.3,6.4-4.3,10.2,0,3.8,1.5,7.6,4.2,10.3l18.9,18.9c.4.4.7.7,1.1,1,51.6,42,116.7,65.2,183.5,65.2h.6c52.2,0,103.3-14.1,148-40.5,3.3-2,5.7-5.1,6.6-8.8,1-3.7.4-7.6-1.6-10.9-2-3.3-5.1-5.7-8.8-6.6-3.7-1-7.6-.4-10.9,1.6-40.2,23.8-86.2,36.4-133.2,36.5h-.7c-59.8,0-118.3-20.7-164.6-58.2l-7.8-7.8c48.7-42.7,111.3-65.5,177.1-64.5,68.2,1.1,132.1,27.8,180.1,75.2,0,0,0,0,0,0,0,0,0,0,0,0h0s0,0,0,0c55,54.4,128.3,84.4,206.3,84.4h0c78.1,0,151.4-30,206.5-84.5,2.7-2.7,4.3-6.4,4.3-10.2,0-3.8-1.6-7.6-4.3-10.2Z"/>
  </g>
</svg>