<?xml version="1.0" encoding="UTF-8"?>
<svg id="Layer_1" xmlns="http://www.w3.org/2000/svg" xmlns:svgjs="http://svgjs.dev/svgjs" version="1.1" viewBox="0 0 800 433.5">
  <!-- Generator: Adobe Illustrator 29.5.1, SVG Export Plug-In . SVG Version: 2.1.0 Build 141)  -->
  <defs>
    <style>
      .st0 {
        fill: none;
        stroke: #a8b29d;
        stroke-width: 2px;
      }

      .st1 {
        opacity: .3;
      }
    </style>
  </defs>
  <g class="st1">
    <ellipse class="st0" cx="123.5" cy="217.3" rx="434" ry="211.3"/>
    <ellipse class="st0" cx="123.5" cy="217.3" rx="419.6" ry="204.2"/>
    <ellipse class="st0" cx="123.5" cy="217.3" rx="405.1" ry="197.2"/>
    <ellipse class="st0" cx="123.5" cy="217.3" rx="390.6" ry="190.1"/>
    <ellipse class="st0" cx="123.5" cy="217.3" rx="376.2" ry="183.1"/>
    <ellipse class="st0" cx="123.5" cy="217.3" rx="361.7" ry="176.1"/>
    <ellipse class="st0" cx="123.5" cy="217.3" rx="347.2" ry="169"/>
    <ellipse class="st0" cx="123.5" cy="217.3" rx="332.8" ry="162"/>
    <ellipse class="st0" cx="123.5" cy="217.3" rx="318.3" ry="154.9"/>
    <ellipse class="st0" cx="123.5" cy="217.3" rx="303.8" ry="147.9"/>
    <ellipse class="st0" cx="123.5" cy="217.3" rx="289.4" ry="140.9"/>
    <ellipse class="st0" cx="123.5" cy="217.3" rx="274.9" ry="133.8"/>
    <ellipse class="st0" cx="123.5" cy="217.3" rx="260.4" ry="126.8"/>
    <ellipse class="st0" cx="123.5" cy="217.3" rx="245.9" ry="119.7"/>
    <ellipse class="st0" cx="123.5" cy="217.3" rx="231.5" ry="112.7"/>
    <ellipse class="st0" cx="123.5" cy="217.3" rx="217" ry="105.6"/>
    <ellipse class="st0" cx="123.5" cy="217.3" rx="202.5" ry="98.6"/>
    <ellipse class="st0" cx="123.5" cy="217.3" rx="188.1" ry="91.6"/>
    <ellipse class="st0" cx="123.5" cy="217.3" rx="173.6" ry="84.5"/>
    <ellipse class="st0" cx="123.5" cy="217.3" rx="159.1" ry="77.5"/>
    <ellipse class="st0" cx="123.5" cy="217.3" rx="144.7" ry="70.4"/>
    <ellipse class="st0" cx="123.5" cy="217.3" rx="130.2" ry="63.4"/>
    <ellipse class="st0" cx="123.5" cy="217.3" rx="115.7" ry="56.3"/>
    <ellipse class="st0" cx="123.5" cy="217.3" rx="101.3" ry="49.3"/>
    <ellipse class="st0" cx="123.5" cy="217.3" rx="86.8" ry="42.3"/>
    <ellipse class="st0" cx="123.5" cy="217.3" rx="72.3" ry="35.2"/>
    <ellipse class="st0" cx="123.5" cy="217.3" rx="57.9" ry="28.2"/>
    <ellipse class="st0" cx="123.5" cy="217.3" rx="43.4" ry="21.1"/>
    <ellipse class="st0" cx="123.5" cy="217.3" rx="28.9" ry="14.1"/>
    <ellipse class="st0" cx="123.5" cy="217.3" rx="14.5" ry="7"/>
  </g>
</svg>