<?xml version="1.0" encoding="UTF-8"?>
<svg id="Layer_1" data-name="Layer 1" xmlns="http://www.w3.org/2000/svg" viewBox="0 0 512 512">
  <path d="M381.6,192.19c32.88-32.88,34.68-86.13,4.01-118.71-15.67-16.65-36.87-25.99-59.69-26.33-22.91-.28-44.28,8.37-60.41,24.49l-2.23,2.23c-3.81,3.81-10.01,3.81-13.83,0-32.88-32.88-86.13-34.68-118.71-4.01-16.65,15.67-25.99,36.87-26.33,59.69-.35,22.82,8.37,44.28,24.49,60.41l90.64,90.64c9.84,9.84,22.91,15.26,36.82,15.26s26.98-5.42,36.82-15.26l88.41-88.41h.01ZM231.82,268.35l-90.62-90.64c-12.79-12.79-19.68-29.8-19.42-47.9.26-18.1,7.69-34.89,20.89-47.33,12.22-11.51,28.18-17.21,44.39-17.21,17.99,0,36.3,7.02,50.15,20.85,10.58,10.58,27.76,10.58,38.34,0l2.23-2.23c12.79-12.79,29.65-19.64,47.9-19.42,18.1.26,34.89,7.69,47.31,20.89,24.32,25.81,22.67,68.23-3.64,94.54l-88.43,88.45c-13.11,13.11-35.98,13.11-49.11,0h0Z"/>
  <path d="M454.33,296.61l-7.09-72.11c-.76-7.78-4.75-14.98-10.95-19.72-6.2-4.77-14.17-6.76-21.89-5.51-14.67,2.41-25.05,15.89-23.67,30.67l3.97,42c.56,5.94-.3,11.79-2.43,17.19-.8-1.15-1.73-2.25-2.75-3.27-9.62-9.62-25.29-9.62-34.92,0l-46.25,46.25c-14.24,14.22-22.97,33.12-24.6,53.19l-3.21,39.55c-1.37,16.95,10.73,32.18,27.57,34.66l34.01,5.01c1.6.24,3.21.35,4.81.35,7.2,0,14.13-2.38,19.9-6.91,7.07-5.53,11.4-13.5,12.25-22.43l1.39-14.63c.52-5.44,2.93-10.58,6.78-14.43l43.24-43.24c17.58-17.6,26.27-41.85,23.84-66.6h0v-.02ZM418.23,350.94l-43.24,43.24c-6.72,6.72-10.9,15.6-11.79,25.05l-1.39,14.63c-.39,4.14-2.41,7.85-5.68,10.42s-7.39,3.66-11.47,3.06l-34.01-5.01c-7.82-1.15-13.44-8.21-12.81-16.1l3.21-39.55c1.3-15.97,8.24-30.99,19.57-42.33l46.25-46.25c2.86-2.86,7.52-2.86,10.38,0,2.82,2.82,2.86,7.37.15,10.25l-25.55,25.55c-3.38,3.38-3.38,8.86,0,12.27,3.38,3.38,8.86,3.38,12.27,0l32.08-32.08c11.55-11.55,17.3-27.5,15.76-43.76l-3.97-42c-.54-5.77,3.51-11.01,9.21-11.94,3.03-.52,6.07.26,8.52,2.15s3.97,4.62,4.27,7.67l7.09,72.11c1.91,19.53-4.96,38.73-18.86,52.62h.01Z"/>
  <path d="M203.64,332.11l-46.25-46.25c-9.62-9.62-25.27-9.62-34.92,0-1.02,1.02-1.95,2.12-2.75,3.27-2.12-5.37-2.97-11.25-2.43-17.19l3.97-42c1.39-14.78-8.99-28.26-23.67-30.67-7.69-1.26-15.69.74-21.89,5.51-6.2,4.77-10.19,11.96-10.95,19.72l-7.09,72.11c-2.43,24.75,6.26,49,23.84,66.58l43.24,43.24c3.86,3.88,6.29,8.99,6.78,14.43l1.39,14.63c.85,8.93,5.2,16.88,12.25,22.43,5.77,4.53,12.7,6.91,19.9,6.91,1.58,0,3.19-.11,4.81-.35l34.01-5.01c16.84-2.47,28.93-17.69,27.57-34.66l-3.21-39.55c-1.63-20.05-10.36-38.95-24.6-53.16h0ZM201.36,442.34l-34.01,5.01c-4.1.61-8.19-.48-11.47-3.06-3.27-2.58-5.29-6.26-5.68-10.42l-1.39-14.63c-.89-9.45-5.09-18.36-11.79-25.05l-43.24-43.24c-13.89-13.89-20.76-33.07-18.83-52.64l7.09-72.11c.3-3.08,1.82-5.79,4.27-7.67,1.95-1.5,4.29-2.3,6.7-2.3.61,0,1.21.04,1.82.15,5.7.93,9.75,6.18,9.21,11.94l-3.97,42c-1.54,16.26,4.2,32.21,15.76,43.76l32.08,32.08c3.38,3.38,8.86,3.38,12.27,0,3.38-3.38,3.38-8.86,0-12.27l-25.55-25.55c-2.73-2.88-2.67-7.43.13-10.25,2.86-2.86,7.52-2.86,10.4,0l46.25,46.25c11.34,11.34,18.27,26.35,19.57,42.33l3.21,39.55c.61,7.91-5.03,14.98-12.83,16.12h0Z"/>
</svg>