<?xml version="1.0" encoding="UTF-8"?>
<svg id="Layer_1" xmlns="http://www.w3.org/2000/svg" version="1.1" viewBox="0 0 128 128">
  <!-- Generator: Adobe Illustrator 29.5.1, SVG Export Plug-In . SVG Version: 2.1.0 Build 141)  -->
  <defs>
    <style>
      .st0 {
        fill: #8ba38b;
      }
    </style>
  </defs>
  <path class="st0" d="M99.4,110.7c1.3,1.3,11.1-8.7,12.2-9.9,25-28.9,12.9-70.4-20.2-86.6-13-6.3-27.6-6.9-41.7-4.1l1.6.4-.4.8,3.3.4c-4.2.4-8.8,1.8-12.4,4.1-.4.2.3.8.4.8,1.4.3,9.3-2.5,11.8-2.8.5,0,1.5-.4,1.4.4-4.3,1.1-9.5,2.2-13,4.9,4.4-.8,8.6-2.7,13-3.5,11.4-2,27.7,2.1,37,9,17.3,12.8,23,32.5,16.9,52.9-.2.5-3,7.2-2,6.9l3.7-3.2c.7,4.4-2.7,8.3-4.7,12l.8.8-1.6,3.9c10.4-10.1,14.1-25.2,13.8-39.4l.8,3.7v-3.9c0-.5-.3-1.5.4-1.4-.2,3.4.2,7,0,10.3-.6,7.3-3.2,17.6-7,23.9-4.6,7.8-11.3,14.3-18.6,19.6l1.3-.4,10.1-7.1c-.4,1.3-7.8,6.9-6.9,7.7h0s0-.2,0-.2ZM15.8,89.5c-1.7-.2-4.2,0-6.1,0s-.7.4-.2,1c2.5,2.8,9.2,2,12.4,3.9,3.3,1.9,8.9,9.2,12.3,12.1,15,13,35.5,16.9,53.9,8.7,1.1-.5,5.6-2.3,2.3-2.5-15.7,6.7-32.2,7.4-47.2-1.4-6-3.5-19.2-14.2-20.2-21.3-.8-5.8,4-11.4,0-16-.2,1.8-2,5-2,6.7v6.5c0,.2,1,1.4,0,1.4-1.3-3.7-5.3-11.4-3-15,.5-.8,1.6-1.4,2.2-2.3,1.9-2.6,3.5-5.4,3.3-8.7-.8-.2-1,.4-1.4.8-3,2.4-4.9,6-5.5,9.7l-1.1-3.6c-.9-5.6-.3-9.4,4-13.3,2.1-1.9,4.9-2.7,5.3-6.1,0-.8-.3-.7-.9-.5-2.5.7-4.4,3-6.1,4.8l-2.3,4c-.2-3.8.9-7.5,2.2-11,1.6-4.1,5.3-8.2,4.7-12.8l-.8-.2c-3.3,5.3-6.1,11-6.1,17.5l-1.9-3.2c-1.9-2.3-4.2-4-7.1-4.9-.2,4.8,6.7,7.5,7.9,11.4.9,3.2,0,7.6-.1,10.9-1-.6-1.3-2.1-2-3-2.3-2.8-5.1-4.9-8.9-4.3,1.3,3.3,4,5.4,6.8,7.2,1.1.7,2.8,1.2,3.8,1.9,1.9,1.6,1.8,7.4,2.5,9.9-3.3-3.2-7.7-6.2-12.6-5.5,1.9,3.6,4.8,5.3,8.5,6.5.9.3,2.1.2,3.1.6,3,1.2,4.7,9,6.3,11.8-.2.2-4.5-1.9-5.5-2h0s-.5.3-.5.3ZM86.4,109.8l-8.1,2.4c1.8,0,3.9-.5,5.6-1.1.7-.2,2.2-.6,2.5-1.3Z"/>
</svg>