<?xml version="1.0" encoding="UTF-8"?>
<svg id="Layer_1" data-name="Layer 1" xmlns="http://www.w3.org/2000/svg" viewBox="0 0 128 128">
  <path d="M99.44,110.65c1.33,1.32,11.08-8.67,12.2-9.95,25.04-28.91,12.95-70.45-20.19-86.6-13-6.34-27.61-6.91-41.65-4.11l1.63.41-.41.81,3.26.41c-4.23.45-8.8,1.77-12.41,4.06-.38.22.32.79.42.81,1.37.26,9.34-2.53,11.84-2.8.45-.05,1.47-.36,1.37.35-4.32,1.08-9.48,2.2-13.02,4.87,4.41-.79,8.59-2.7,13-3.47,11.43-1.98,27.67,2.1,37.02,8.99,17.3,12.75,23.01,32.51,16.92,52.94-.16.53-3.01,7.2-2.03,6.9l3.67-3.24c.7,4.43-2.67,8.33-4.65,12.02l.78.75-1.62,3.88c10.36-10.06,14.14-25.23,13.84-39.37l.81,3.65c.04-1.28-.05-2.58,0-3.86.02-.49-.31-1.51.4-1.41-.17,3.38.25,6.99,0,10.34-.55,7.34-3.25,17.56-6.99,23.88-4.61,7.8-11.34,14.29-18.64,19.57l1.26-.37,10.13-7.14c-.39,1.29-7.76,6.87-6.92,7.71h0ZM15.82,89.54c-1.73-.23-4.25,0-6.11,0-.24,0-.74.44-.21,1.03,2.5,2.78,9.16,2.04,12.36,3.91,3.26,1.9,8.89,9.2,12.26,12.13,15,13.04,35.48,16.94,53.92,8.7,1.05-.47,5.55-2.27,2.35-2.54-15.71,6.68-32.21,7.4-47.22-1.38-5.98-3.5-19.21-14.25-20.19-21.27-.81-5.79,3.98-11.39-.03-16-.21,1.85-2.04,5.02-2.04,6.7v6.49c0,.23,1,1.42,0,1.42-1.32-3.72-5.33-11.36-3.04-15,.51-.81,1.62-1.45,2.21-2.26,1.88-2.58,3.46-5.39,3.26-8.72-.77-.18-.96.43-1.42.81-2.95,2.41-4.89,6.01-5.5,9.74l-1.11-3.55c-.89-5.55-.3-9.42,3.96-13.3,2.09-1.91,4.91-2.71,5.29-6.1.09-.84-.29-.7-.93-.52-2.52.7-4.42,3.01-6.15,4.83l-2.27,4.02c-.19-3.76.85-7.49,2.24-10.95,1.65-4.11,5.26-8.15,4.68-12.8l-.81-.2c-3.33,5.32-6.14,10.98-6.11,17.45l-1.86-3.21c-1.9-2.32-4.2-4.02-7.08-4.91-.17,4.81,6.73,7.55,7.86,11.44.92,3.19-.03,7.61-.14,10.89-.97-.63-1.29-2.13-2.03-3.04-2.31-2.84-5.08-4.89-8.95-4.26,1.27,3.29,3.96,5.38,6.79,7.22,1.11.72,2.82,1.16,3.77,1.92,1.94,1.55,1.83,7.44,2.46,9.93-3.34-3.2-7.73-6.17-12.61-5.48,1.92,3.63,4.75,5.27,8.53,6.51.95.32,2.06.16,3.1.56,2.99,1.16,4.71,9.01,6.28,11.8-.23.19-4.49-1.89-5.49-2.03h0ZM86.42,109.84l-8.14,2.43c1.83-.04,3.88-.53,5.61-1.1.69-.23,2.23-.63,2.53-1.33Z"/>
</svg>